<?xml version="1.0" encoding="utf-8"?>
<!-- Generator: Adobe Illustrator 19.1.1, SVG Export Plug-In . SVG Version: 6.00 Build 0)  -->
<svg version="1.1" id="CodeJam.Blocks" xmlns="http://www.w3.org/2000/svg" xmlns:xlink="http://www.w3.org/1999/xlink" x="0px"
	 y="0px" width="48px" height="48px" viewBox="0 0 48 48" style="enable-background:new 0 0 48 48;" xml:space="preserve">
<style type="text/css">
	.st0{fill:#893D99;}
	.st1{fill:#FFFFFF;}
	.st2{fill:none;stroke:#FFFFFF;stroke-miterlimit:10;}
</style>
<rect class="st0" width="48" height="48"/>
<path class="st1" d="M31,40H17c0,0-8.5-8-8.5-16c0-6,4.5-11,4.5-11h22c0,0,4.5,5,4.5,11C39.5,32,31,40,31,40z"/>
<path class="st1" d="M36,12H12v-1c0-1.7,1.3-3,3-3h18c1.7,0,3,1.3,3,3V12z"/>
<path class="st0" d="M36.5,14.5l5,5c0,0-5.6-1.4-7,0c-2.5,2.6-6.7-1.5-8,0c-2.5,2.9-7.6-1.4-9,0c-1.1,1.1-5.5,1.7-6,0.6
	c-0.6-1.1-4-0.6-4-0.6l5-5"/>
<path class="st1" d="M36,13l5,5c0,0-5.6-1.4-7,0c-2.5,2.6-6.7-1.5-8,0c-2.5,2.9-7.6-1.4-9,0c-1.1,1.1-5.5,1.7-6,0.6
	C10.4,17.5,7,18,7,18l5-5"/>
<path class="st2" d="M35.6,11.7c0,0,2.6-3.1,4.6-2.9c2.7,0.3,2.7,3.7,0.5,4.4c-1.7,0.5-4.7,0.3-4.7,0.3"/>
<path class="st2" d="M36.5,13.4c1.4-0.7,2.7,1.3,4.1,1.1c2.6-0.3,3.7,1.2,3.8,1.6"/>
<g>
	<path class="st0" d="M27.9,30.7H26l-0.3,3h-1.2l0.3-3h-2.1l-0.3,3h-1.2l0.3-3h-1.8v-1.1h1.9l0.3-2.9h-1.8v-1.1H22l0.3-2.7h1.2
		l-0.3,2.7h2.1l0.3-2.7h1.2l-0.3,2.7h1.8v1.1h-1.9l-0.3,2.9h1.7V30.7z M24.9,29.6l0.3-2.9h-2.1l-0.3,2.9H24.9z"/>
</g>
<g>
	<path class="st0" d="M35,47h-5c-1.7,0-3-1.3-3-3v-5c0-1.7,1.3-3,3-3h5c1.7,0,3,1.3,3,3v5C38,45.7,36.7,47,35,47z"/>
</g>
<g>
	<path class="st1" d="M30,44.3c-0.1,0-0.3-0.1-0.3-0.3v-5c0-0.1,0.1-0.3,0.3-0.3h5c0.1,0,0.3,0.1,0.3,0.3v5c0,0.1-0.1,0.3-0.3,0.3
		H30z"/>
	<path class="st1" d="M34.5,39.5v4h-4v-4H34.5 M35,38h-5c-0.6,0-1,0.4-1,1v5c0,0.6,0.4,1,1,1h5c0.6,0,1-0.4,1-1v-5
		C36,38.4,35.6,38,35,38L35,38z"/>
</g>
<g>
	<path class="st1" d="M39,44.3c-0.1,0-0.3-0.1-0.3-0.3v-5c0-0.1,0.1-0.3,0.3-0.3h5c0.1,0,0.3,0.1,0.3,0.3v5c0,0.1-0.1,0.3-0.3,0.3
		H39z"/>
	<path class="st1" d="M43.5,39.5v4h-4v-4H43.5 M44,38h-5c-0.6,0-1,0.4-1,1v5c0,0.6,0.4,1,1,1h5c0.6,0,1-0.4,1-1v-5
		C45,38.4,44.6,38,44,38L44,38z"/>
</g>
<g>
	<path class="st0" d="M44,38h-5c-1.7,0-3-1.3-3-3v-5c0-1.7,1.3-3,3-3h5c1.7,0,3,1.3,3,3v5C47,36.7,45.7,38,44,38z"/>
</g>
<g>
	<path class="st1" d="M39,35.3c-0.1,0-0.3-0.1-0.3-0.3v-5c0-0.1,0.1-0.3,0.3-0.3h5c0.1,0,0.3,0.1,0.3,0.3v5c0,0.1-0.1,0.3-0.3,0.3
		H39z"/>
	<path class="st1" d="M43.5,30.5v4h-4v-4H43.5 M44,29h-5c-0.6,0-1,0.4-1,1v5c0,0.6,0.4,1,1,1h5c0.6,0,1-0.4,1-1v-5
		C45,29.4,44.6,29,44,29L44,29z"/>
</g>
</svg>
