<?xml version="1.0" encoding="UTF-8" standalone="no"?>
<!-- Created with Inkscape (http://www.inkscape.org/) -->

<svg
   xmlns:osb="http://www.openswatchbook.org/uri/2009/osb"
   xmlns:dc="http://purl.org/dc/elements/1.1/"
   xmlns:cc="http://creativecommons.org/ns#"
   xmlns:rdf="http://www.w3.org/1999/02/22-rdf-syntax-ns#"
   xmlns:svg="http://www.w3.org/2000/svg"
   xmlns="http://www.w3.org/2000/svg"
   xmlns:sodipodi="http://sodipodi.sourceforge.net/DTD/sodipodi-0.dtd"
   xmlns:inkscape="http://www.inkscape.org/namespaces/inkscape"
   width="72.248886mm"
   height="72.248886mm"
   viewBox="0 0 255.99999 255.99999"
   id="svg2"
   version="1.1"
   inkscape:version="0.91 r13725"
   sodipodi:docname="CodeJam.PerfTests.logo.svg">
  <defs
     id="defs4">
    <linearGradient
       id="linearGradient5926"
       osb:paint="solid">
      <stop
         style="stop-color:#ffffff;stop-opacity:1;"
         offset="0"
         id="stop5928" />
    </linearGradient>
    <marker
       inkscape:stockid="DiamondM"
       orient="auto"
       refY="0.0"
       refX="0.0"
       id="DiamondM"
       style="overflow:visible"
       inkscape:isstock="true">
      <path
         id="path4272"
         d="M 0,-7.0710768 L -7.0710894,0 L 0,7.0710589 L 7.0710462,0 L 0,-7.0710768 z "
         style="fill-rule:evenodd;stroke:#ffffff;stroke-width:1pt;stroke-opacity:1;fill:#ffffff;fill-opacity:1"
         transform="scale(0.4)" />
    </marker>
    <marker
       inkscape:stockid="DiamondL"
       orient="auto"
       refY="0.0"
       refX="0.0"
       id="DiamondL"
       style="overflow:visible"
       inkscape:isstock="true">
      <path
         id="path4269"
         d="M 0,-7.0710768 L -7.0710894,0 L 0,7.0710589 L 7.0710462,0 L 0,-7.0710768 z "
         style="fill-rule:evenodd;stroke:#ffffff;stroke-width:1pt;stroke-opacity:1;fill:#ffffff;fill-opacity:1"
         transform="scale(0.8)" />
    </marker>
    <linearGradient
       id="linearGradient4162"
       osb:paint="gradient">
      <stop
         style="stop-color:#58b3ff;stop-opacity:1;"
         offset="0"
         id="stop4164" />
      <stop
         style="stop-color:#58b3ff;stop-opacity:0;"
         offset="1"
         id="stop4166" />
    </linearGradient>
    <pattern
       y="0"
       x="0"
       height="6"
       width="6"
       patternUnits="userSpaceOnUse"
       id="EMFhbasepattern" />
    <pattern
       y="0"
       x="0"
       height="6"
       width="6"
       patternUnits="userSpaceOnUse"
       id="EMFhbasepattern-8" />
  </defs>
  <sodipodi:namedview
     id="base"
     pagecolor="#ffffff"
     bordercolor="#ffffff"
     borderopacity="0"
     inkscape:pageopacity="0"
     inkscape:pageshadow="2"
     inkscape:zoom="0.7"
     inkscape:cx="-666.74893"
     inkscape:cy="225.60453"
     inkscape:document-units="px"
     inkscape:current-layer="layer1"
     showgrid="false"
     showguides="true"
     fit-margin-top="0"
     fit-margin-left="0"
     fit-margin-right="0"
     fit-margin-bottom="0"
     inkscape:window-width="1536"
     inkscape:window-height="841"
     inkscape:window-x="-8"
     inkscape:window-y="-8"
     inkscape:window-maximized="1" />
  <metadata
     id="metadata7">
    <rdf:RDF>
      <cc:Work
         rdf:about="">
        <dc:format>image/svg+xml</dc:format>
        <dc:type
           rdf:resource="http://purl.org/dc/dcmitype/StillImage" />
        <dc:title />
      </cc:Work>
    </rdf:RDF>
  </metadata>
  <g
     inkscape:label="Layer 1"
     inkscape:groupmode="layer"
     id="layer1"
     transform="translate(-73.996216,-13.238892)">
    <flowRoot
       xml:space="preserve"
       id="flowRoot4138"
       style="fill:black;stroke:none;stroke-opacity:1;stroke-width:1px;stroke-linejoin:miter;stroke-linecap:butt;fill-opacity:1;font-family:sans-serif;font-style:normal;font-weight:normal;font-size:40px;line-height:125%;letter-spacing:0px;word-spacing:0px"><flowRegion
         id="flowRegion4140"><rect
           id="rect4142"
           width="242.43661"
           height="212.13203"
           x="-682.8631"
           y="-24.822422" /></flowRegion><flowPara
         id="flowPara4144" /></flowRoot>    <path
       inkscape:connector-curvature="0"
       id="path4151"
       d="m -546.2348,104.43738 c 0.13759,0.32275 0.254,0.52914 0.35453,0.61908 0.0952,0.0952 0.40214,0.27514 0.91542,0.53973 l 0.82016,0.41802 c 0.64553,0.33864 1.01595,0.69317 1.1112,1.06356 -0.78314,0.39686 -1.852,0.59264 -3.20658,0.59264 -1.34931,0 -2.42347,-0.19578 -3.2066,-0.59264 0.0953,-0.37039 0.47093,-0.72492 1.11648,-1.06356 l 0.82017,-0.41802 c 0.51325,-0.26459 0.82545,-0.44448 0.926,-0.53973 0.10053,-0.0899 0.21695,-0.29633 0.34922,-0.61908 z m -2.69331,-6.450216 c 0.91541,0.587333 1.81495,0.878361 2.68804,0.878361 0.87305,0 1.77261,-0.291028 2.69861,-0.878361 -0.15348,0.248695 -0.49742,0.661416 -1.02125,1.227611 l -0.77256,0.846615 c -0.34392,0.38097 -0.55558,0.64024 -0.62967,0.78841 -0.0741,0.14817 -0.13758,0.42331 -0.18519,0.83075 -0.0159,0.127 -0.0423,0.31219 -0.0847,0.56089 -0.0423,-0.2487 -0.0741,-0.43389 -0.0847,-0.56089 -0.0476,-0.40744 -0.11111,-0.68258 -0.18519,-0.83075 -0.0741,-0.14817 -0.28573,-0.40744 -0.63498,-0.78841 l -0.77253,-0.846615 c -0.52914,-0.566195 -0.86779,-0.978916 -1.01594,-1.227611 z m -0.9842,-1.841406 0,0.89424 c 0,0.428611 0.0582,0.756666 0.1852,0.9895 0.1217,0.232805 0.44447,0.624388 0.95774,1.179971 l 1.05299,1.116501 c 0.52383,0.57675 0.78842,0.97889 0.78842,1.217 0,0.24341 -0.24342,0.62439 -0.72492,1.14294 l -1.21174,1.29111 c -0.47093,0.50267 -0.76196,0.87836 -0.87837,1.12706 -0.11112,0.24869 -0.16932,0.62438 -0.16932,1.12708 l 0,0.66672 c 0,0.40742 0.14286,0.68258 0.43389,0.8413 0.71434,0.38628 1.79379,0.58206 3.23835,0.58206 1.44983,0 2.52927,-0.19578 3.23833,-0.58206 0.29102,-0.15872 0.43389,-0.43388 0.43389,-0.8413 l 0,-0.66672 c 0,-0.5027 -0.0529,-0.87839 -0.16934,-1.12708 -0.11641,-0.2487 -0.40744,-0.62439 -0.87836,-1.12706 l -1.20116,-1.29111 c -0.48681,-0.51855 -0.72492,-0.91542 -0.72492,-1.17997 0,-0.21167 0.26458,-0.60322 0.799,-1.17997 l 1.03711,-1.116501 c 0.51328,-0.555583 0.83075,-0.947166 0.95247,-1.179971 0.12697,-0.232834 0.1852,-0.560889 0.1852,-0.9895 l 0,-0.89424 c -0.84664,0.539721 -2.07423,0.809582 -3.67222,0.809582 -0.799,0 -1.50277,-0.06879 -2.11657,-0.201072 -0.60851,-0.137575 -1.12707,-0.33865 -1.55567,-0.60851 z m 3.67224,-1.36518 c -0.97892,0 -1.79909,0.07937 -2.45522,0.238114 -0.65613,0.158741 -0.9842,0.354522 -0.9842,0.587344 0,0.216947 0.35981,0.423311 1.09003,0.613802 0.73021,0.185197 1.51333,0.280444 2.34939,0.280444 0.85719,0 1.64561,-0.09525 2.37052,-0.285736 0.72492,-0.19578 1.08475,-0.402147 1.06886,-0.624385 -0.0106,-0.227528 -0.34394,-0.423311 -1.00005,-0.576761 -0.65086,-0.15345 -1.46572,-0.232822 -2.43933,-0.232822 z m 0,-0.455059 c 2.75149,0 4.13255,0.523848 4.13255,1.582128 l 0,0.76196 c 0,0.629669 -0.0741,1.127057 -0.21164,1.486891 -0.13758,0.359805 -0.41803,0.75136 -0.83075,1.174665 l -1.22761,1.264667 c -0.47094,0.4815 -0.70905,0.79369 -0.70905,0.92597 0,0.127 0.1905,0.39686 0.57677,0.80958 l 1.22761,1.29642 c 0.47622,0.50797 0.7937,0.93655 0.94186,1.2858 0.15345,0.34923 0.23281,0.82545 0.23281,1.42867 l 0,0.70905 c 0,0.56617 -0.3545,1.00006 -1.05297,1.29109 -0.70375,0.29102 -1.725,0.43919 -3.07958,0.43919 -1.34931,0 -2.37585,-0.14817 -3.07961,-0.43919 -0.69846,-0.29103 -1.04769,-0.72492 -1.04769,-1.29109 l 0,-0.70905 c 0,-0.60322 0.0741,-1.07944 0.22753,-1.42867 0.14816,-0.34925 0.46564,-0.77783 0.94187,-1.2858 l 1.2276,-1.29642 c 0.39158,-0.41272 0.58735,-0.68258 0.58735,-0.80958 0,-0.13228 -0.23811,-0.44447 -0.71964,-0.92597 l -1.2276,-1.264667 c -0.41273,-0.423305 -0.69317,-0.81486 -0.83075,-1.174665 -0.13757,-0.359834 -0.20636,-0.857222 -0.20636,-1.486891 l 0,-0.76196 c 0,-0.529142 0.34394,-0.925994 1.03182,-1.185274 0.68788,-0.26457 1.7197,-0.396854 3.09548,-0.396854 z"
       style="fill:#ffffff;fill-opacity:1;fill-rule:evenodd;stroke:none" />
    <g
       id="g4164"
       transform="translate(-1310,-344.28571)">
      <circle
         r="127.75"
         cy="141.23889"
         cx="201.99622"
         id="path4136"
         style="fill:#0057a0;fill-opacity:1;stroke:none;stroke-width:0.5;stroke-miterlimit:4;stroke-dasharray:none;stroke-opacity:1" />
      <path
         style="fill:none;fill-opacity:1;stroke:#ffffff;stroke-width:4;stroke-linecap:butt;stroke-linejoin:round;stroke-miterlimit:4;stroke-dasharray:none;stroke-dashoffset:23.39999962;stroke-opacity:1"
         d="m 166.42232,174.53663 c 1.53583,3.55902 2.83524,5.83492 3.9574,6.82671 1.06266,1.04979 4.48884,3.03402 10.21826,5.9517 l 9.15494,4.60958 c 7.20564,3.73425 11.34041,7.64372 12.40363,11.72808 -8.7417,4.37625 -20.67272,6.53515 -35.79306,6.53515 -15.0615,0 -27.05168,-2.1589 -35.79327,-6.53515 1.06378,-4.08436 5.2567,-7.99383 12.46257,-11.72808 l 9.15504,-4.60958 c 5.72909,-2.91768 9.21399,-4.90136 10.33636,-5.9517 1.12216,-0.99135 2.42168,-3.26769 3.89813,-6.82671 z M 136.35858,103.4089 c 10.21815,6.47663 20.25916,9.68585 30.00491,9.68585 9.74532,0 19.78654,-3.20922 30.12291,-9.68585 -1.71321,2.74241 -5.55239,7.29356 -11.39958,13.53709 l -8.62361,9.33578 c -3.83896,4.20103 -6.20159,7.06005 -7.02861,8.69395 -0.82713,1.6339 -1.53572,4.66792 -2.06716,9.16083 -0.17748,1.40045 -0.47217,3.44258 -0.94545,6.18504 -0.47217,-2.74246 -0.82714,-4.78459 -0.94546,-6.18504 -0.53133,-4.49291 -1.24025,-7.52693 -2.06716,-9.16083 -0.82713,-1.6339 -3.18942,-4.49292 -7.08788,-8.69395 l -8.62327,-9.33578 c -5.90646,-6.24353 -9.6866,-10.79468 -11.34031,-13.53709 z m -10.98601,-20.305525 0,9.860952 c 0,4.726376 0.64965,8.343893 2.06727,10.911393 1.35846,2.56719 4.96135,6.88525 10.69066,13.01176 l 11.75387,12.31187 c 5.84718,6.35993 8.80064,10.7944 8.80064,13.42008 0,2.68413 -2.71715,6.88527 -8.09183,12.60342 l -13.5259,14.23731 c -5.2567,5.54303 -8.50529,9.68583 -9.8047,12.42829 -1.24036,2.74235 -1.89001,6.88516 -1.89001,12.42852 l 0,7.35205 c 0,4.49269 1.59466,7.52694 4.84324,9.27717 7.97374,4.25958 20.02296,6.41848 36.14768,6.41848 16.18355,0 28.23267,-2.1589 36.14746,-6.41848 3.24848,-1.75023 4.84325,-4.78448 4.84325,-9.27717 l 0,-7.35205 c 0,-5.54336 -0.59049,-9.68617 -1.89024,-12.42852 -1.29941,-2.74246 -4.548,-6.88526 -9.80458,-12.42829 l -13.40781,-14.23731 c -5.43395,-5.71815 -8.09182,-10.09451 -8.09182,-13.01175 0,-2.33413 2.95333,-6.65182 8.91874,-13.01175 l 11.5766,-12.31187 c 5.72943,-6.12651 9.27315,-10.44457 10.63184,-13.01176 1.41728,-2.5675 2.06727,-6.185017 2.06727,-10.911393 l 0,-9.860952 c -9.45052,5.951603 -23.15334,8.927413 -40.99071,8.927413 -8.91874,0 -16.77448,-0.758558 -23.62594,-2.217261 -6.79242,-1.517065 -12.58078,-3.734353 -17.36498,-6.710152 z m 40.99092,-15.054093 c -10.92707,0 -20.08211,0.87523 -27.40609,2.625727 -7.32396,1.750465 -10.98601,3.90938 -10.98601,6.476753 0,2.392314 4.01634,4.667928 12.16733,6.768507 8.15088,2.042201 16.89236,3.092508 26.22477,3.092508 9.56828,0 18.36892,-1.050339 26.46064,-3.150863 8.09183,-2.1589 12.10839,-4.434551 11.93102,-6.885211 -0.11832,-2.508991 -3.83919,-4.667929 -11.16294,-6.360048 -7.26514,-1.692124 -16.36091,-2.567373 -27.22872,-2.567373 z m 0,-5.01802 c 30.71317,0 46.12909,5.776569 46.12909,17.446417 l 0,8.402277 c 0,6.943477 -0.82714,12.428264 -2.36241,16.396224 -1.53572,3.96763 -4.66621,8.28538 -9.27315,12.95325 l -13.70304,13.94572 c -5.25681,5.30959 -7.91468,8.75216 -7.91468,10.21084 0,1.40045 2.12643,4.37625 6.43812,8.92739 l 13.70304,14.29586 c 5.31575,5.60148 8.85958,10.32751 10.5134,14.17876 1.71287,3.85102 2.59872,9.10238 2.59872,15.7542 l 0,7.81883 c 0,6.24326 -3.95707,11.02785 -11.75366,14.23709 -7.85552,3.20913 -19.25509,4.84303 -34.37543,4.84303 -15.0615,0 -26.52013,-1.6339 -34.37576,-4.84303 -7.79647,-3.20924 -11.69471,-7.99383 -11.69471,-14.23709 l 0,-7.81883 c 0,-6.65182 0.82713,-11.90318 2.53977,-15.7542 1.65382,-3.85125 5.19765,-8.57728 10.51351,-14.17876 l 13.70293,-14.29586 c 4.37097,-4.55114 6.55623,-7.52694 6.55623,-8.92739 0,-1.45868 -2.65787,-4.90125 -8.03289,-10.21084 l -13.70294,-13.94572 c -4.60705,-4.66787 -7.73742,-8.98562 -9.27314,-12.95325 -1.53561,-3.96796 -2.30347,-9.452747 -2.30347,-16.396224 l 0,-8.402277 c 0,-5.834945 3.83919,-10.211106 11.51756,-13.070232 7.67838,-2.917465 19.19594,-4.376185 34.55291,-4.376185 z"
         id="path4153"
         inkscape:connector-curvature="0" />
      <path
         style="fill:none;fill-opacity:1;fill-rule:evenodd;stroke:#ffffff;stroke-width:4;stroke-linecap:round;stroke-miterlimit:4;stroke-dasharray:none;stroke-dashoffset:15;stroke-opacity:1"
         d="m 262.19144,172.45592 c 2.36373,0 4.34413,0.74817 5.9412,2.36892 1.66106,1.55842 2.42772,3.4914 2.42772,5.7981 0,2.24414 -0.83065,4.177 -2.42772,5.73554 -1.66094,1.55854 -3.64134,2.36915 -5.9412,2.36915 -2.29986,0 -4.28026,-0.81061 -5.87745,-2.36915 -1.59707,-1.55854 -2.4276,-3.4914 -2.4276,-5.73554 0,-2.3067 0.83065,-4.23968 2.4276,-5.7981 1.59719,-1.6211 3.57759,-2.36892 5.87745,-2.36892 z m 0.89464,-87.032061 c 10.28533,0 17.82384,2.9301 22.6794,8.790401 3.57736,4.23945 5.42989,9.03984 5.42989,14.21443 0,3.5536 -0.83064,7.23187 -2.42735,10.97233 -1.66106,3.74083 -4.7277,8.16737 -9.26368,13.21695 -7.21881,7.98016 -11.69068,13.65348 -13.28787,17.01999 -1.66106,3.30418 -2.61932,7.91747 -2.93878,13.71568 l -3.13039,0 c 0.38393,-6.10973 1.14938,-11.15967 2.36384,-15.21201 1.27761,-3.9899 3.7692,-9.6009 7.60214,-16.77056 3.00254,-5.48622 4.9833,-9.72555 5.8777,-12.65565 0.89464,-2.93021 1.34148,-5.92263 1.34148,-8.9775 0,-6.17207 -1.72481,-11.09723 -5.04693,-14.71316 -3.38598,-3.67827 -7.53851,-5.48623 -12.39371,-5.48623 -4.34413,0 -7.79399,0.99795 -10.28546,2.99242 -2.49158,1.99507 -3.70544,4.17712 -3.70544,6.48382 0,1.80797 0.70267,4.05234 2.23599,6.67081 1.46945,2.61845 2.236,4.6134 2.236,5.98496 0,1.74564 -0.57469,3.24185 -1.72493,4.42643 -1.14938,1.18469 -2.55534,1.74563 -4.21639,1.74563 -2.04428,0 -3.96092,-0.99794 -5.68573,-2.99254 -1.72493,-2.05727 -2.61933,-4.86283 -2.61933,-8.47877 0,-5.48622 2.4276,-10.34906 7.28292,-14.58839 4.85532,-4.239441 11.37158,-6.359041 19.67663,-6.359041 z"
         id="path4175"
         inkscape:connector-curvature="0" />
    </g>
  </g>
</svg>
